<?xml version="1.0" standalone="no"?>
<!DOCTYPE svg PUBLIC "-//W3C//DTD SVG 20010904//EN"
 "http://www.w3.org/TR/2001/REC-SVG-20010904/DTD/svg10.dtd">
<svg version="1.0" xmlns="http://www.w3.org/2000/svg"
 width="556.000000pt" height="449.000000pt" viewBox="0 0 556.000000 449.000000"
 preserveAspectRatio="xMidYMid meet">

<g transform="translate(0.000000,449.000000) scale(0.100000,-0.100000)"
fill="#000000" stroke="none">
<path d="M2110 4362 c-74 -22 -178 -47 -230 -56 -161 -29 -279 -88 -386 -192
-49 -47 -66 -71 -76 -108 -11 -42 -19 -51 -73 -83 -93 -56 -175 -125 -235
-197 -63 -76 -141 -206 -171 -285 -28 -77 -43 -199 -30 -247 10 -36 7 -45 -44
-149 -78 -160 -90 -206 -89 -355 0 -101 5 -145 27 -228 14 -57 36 -119 47
-138 26 -42 77 -82 111 -87 21 -3 27 -14 42 -73 38 -143 145 -314 281 -448
101 -99 180 -155 262 -186 59 -22 84 -25 84 -11 0 22 -96 150 -146 195 -151
134 -277 315 -315 451 -18 65 -18 320 0 395 26 109 111 306 163 381 102 145
252 275 384 334 95 42 221 75 288 75 81 0 133 16 168 50 22 23 26 33 19 52 -4
13 -19 29 -32 35 -66 34 -334 -7 -483 -74 -45 -20 -112 -57 -151 -83 -277
-187 -469 -515 -514 -879 -6 -47 -15 -89 -19 -93 -5 -5 -22 44 -38 109 -24
100 -29 138 -29 248 0 126 1 132 33 200 139 293 374 529 625 626 119 45 205
61 344 60 198 -1 258 -19 400 -118 74 -52 123 -58 148 -19 15 22 15 28 1 53
-35 68 -165 160 -281 199 -65 21 -105 27 -210 31 -350 13 -608 -97 -873 -371
-94 -98 -114 -114 -88 -73 8 12 28 57 46 99 82 199 249 371 428 438 149 57
356 75 517 45 121 -22 197 -48 303 -106 77 -42 117 -73 192 -149 109 -108 270
-328 324 -443 39 -82 57 -95 92 -72 70 46 23 220 -98 362 -29 34 -87 102 -128
150 -163 192 -209 231 -365 311 -141 72 -235 94 -425 99 -125 4 -186 1 -249
-11 -47 -8 -87 -13 -90 -10 -10 10 71 73 127 100 59 28 179 54 251 54 135 0
360 -83 542 -199 262 -168 418 -342 480 -537 30 -93 31 -99 27 -257 -4 -157
-5 -164 -36 -231 -36 -77 -39 -102 -16 -134 22 -32 49 -27 99 19 38 35 49 54
70 123 72 238 57 419 -52 640 -77 157 -227 315 -433 457 -202 138 -237 157
-340 182 -52 13 -90 26 -84 29 5 3 43 9 84 12 221 20 517 -110 718 -314 111
-112 183 -228 239 -382 55 -149 63 -194 63 -327 0 -159 -15 -261 -46 -323 -30
-60 -125 -163 -199 -216 -27 -19 -84 -68 -125 -107 -41 -39 -85 -77 -97 -85
-13 -8 -26 -30 -29 -47 -9 -44 15 -52 69 -25 23 11 66 25 96 31 94 20 132 43
228 142 108 111 127 134 198 254 71 118 104 209 112 304 5 66 1 96 -26 207
-39 160 -41 164 -115 299 -78 144 -131 224 -203 310 -87 106 -91 111 -73 100
125 -74 276 -209 335 -300 18 -28 64 -85 103 -128 87 -96 113 -140 146 -247
34 -114 41 -182 26 -271 -23 -137 -72 -255 -159 -384 -50 -74 -210 -213 -312
-272 -103 -59 -360 -113 -541 -113 -64 0 -111 -5 -136 -15 -34 -14 -42 -14
-75 0 -47 20 -111 19 -131 -1 -21 -21 -20 -62 3 -100 61 -100 321 -230 526
-264 272 -45 598 67 844 290 24 22 47 38 49 35 3 -3 -7 -36 -22 -74 -169 -431
-661 -558 -1215 -314 -145 63 -326 218 -418 357 -51 75 -96 179 -120 271 -19
74 -36 95 -79 95 -49 0 -63 -9 -69 -43 -15 -77 42 -242 128 -374 233 -362 648
-573 1125 -573 133 0 143 -1 131 -16 -39 -48 -162 -100 -265 -115 -210 -29
-532 69 -790 240 -121 80 -195 149 -253 235 -62 92 -68 103 -102 202 -43 125
-53 207 -40 334 14 137 40 226 85 299 20 33 36 66 36 73 0 24 -34 48 -68 48
-26 0 -38 -9 -71 -52 -52 -70 -76 -121 -103 -215 -30 -103 -33 -343 -5 -438
64 -217 128 -329 264 -463 137 -133 273 -220 466 -297 78 -31 146 -60 150 -64
11 -11 -94 -31 -157 -31 -77 0 -223 34 -296 68 -368 172 -654 594 -625 922 8
94 37 229 63 298 53 139 166 281 302 380 87 64 100 78 100 109 0 29 -33 47
-74 39 -107 -21 -227 -122 -344 -294 -79 -115 -114 -190 -148 -317 -24 -88
-27 -118 -28 -250 0 -192 16 -265 88 -410 130 -261 360 -496 576 -591 156 -68
231 -85 385 -86 152 -1 226 11 354 59 54 20 138 42 195 50 56 8 128 25 161 38
148 55 350 209 381 290 11 31 31 52 85 89 147 104 263 253 333 427 48 119 52
175 11 185 -30 7 -30 10 -4 53 42 70 141 156 221 194 98 47 142 56 258 57 114
0 140 12 140 65 0 56 -33 70 -155 69 -126 0 -220 -23 -330 -79 -116 -60 -149
-87 -213 -180 -145 -208 -378 -377 -604 -437 -112 -29 -289 -29 -400 1 -93 24
-216 76 -243 102 -24 23 -14 24 62 4 75 -20 262 -19 359 0 225 47 443 170 600
338 122 131 199 267 236 415 29 113 31 323 5 422 -34 129 -122 270 -276 439
-164 179 -262 258 -411 330 -86 42 -102 46 -175 48 -69 1 -92 7 -171 41 -181
80 -243 94 -409 98 -149 4 -151 4 -285 -34z"/>
<path d="M4103 3560 c-65 -4 -87 -9 -102 -25 -55 -56 -21 -125 61 -125 79 1
231 19 241 29 15 15 13 89 -3 105 -18 17 -88 23 -197 16z"/>
<path d="M4759 3563 c-76 -3 -89 -7 -109 -28 -14 -14 -23 -37 -23 -54 0 -61
-9 -60 372 -58 313 2 350 4 374 20 21 13 27 25 27 52 0 59 -13 62 -300 67
-140 2 -294 3 -341 1z"/>
<path d="M4298 3211 c-79 -16 -103 -82 -45 -124 23 -18 41 -21 128 -20 84 0
104 3 127 20 38 28 50 67 31 101 -14 26 -18 27 -109 29 -52 0 -112 -2 -132 -6z"/>
<path d="M4831 3211 c-53 -7 -91 -34 -91 -67 0 -20 21 -62 34 -67 6 -2 116 -2
245 1 229 5 235 5 258 28 13 13 23 30 23 39 0 23 -35 53 -77 64 -40 12 -302
13 -392 2z"/>
<path d="M2316 3195 c-43 -16 -101 -56 -129 -89 -70 -80 -89 -224 -43 -322 55
-118 143 -179 261 -178 313 1 419 412 148 571 -57 33 -174 42 -237 18z"/>
<path d="M4746 2829 c-34 -26 -36 -73 -3 -93 15 -9 70 -16 169 -20 l147 -7 17
27 c16 24 16 29 3 53 -26 47 -71 61 -195 61 -97 0 -115 -3 -138 -21z"/>
<path d="M636 940 c-90 -46 -135 -116 -143 -223 -5 -69 -7 -74 -34 -84 -21 -8
-29 -20 -35 -48 -10 -56 5 -89 42 -93 l31 -3 -4 -72 c-2 -40 -8 -125 -13 -190
-5 -69 -5 -128 0 -141 16 -44 70 -67 115 -50 35 14 43 56 51 261 l7 201 69 7
c99 9 98 8 98 75 l0 57 -86 6 c-47 2 -87 6 -89 8 -1 2 1 29 6 59 10 66 46 105
87 95 77 -19 80 -19 101 16 27 44 27 91 0 115 -32 29 -151 31 -203 4z"/>
<path d="M941 946 c-16 -20 -28 -830 -12 -869 13 -32 50 -52 84 -44 50 13 52
29 52 485 1 391 -1 424 -16 433 -27 14 -95 11 -108 -5z"/>
<path d="M4688 832 c-25 -14 -28 -23 -28 -67 0 -27 -3 -66 -6 -86 -6 -34 -8
-36 -43 -35 l-36 1 -3 -62 -3 -62 38 -3 38 -3 6 -145 c9 -194 37 -258 138
-313 55 -30 96 -34 146 -13 49 21 70 58 59 104 -9 37 -9 37 -71 42 -40 3 -68
11 -79 22 -21 21 -32 93 -33 209 l-1 87 31 6 c17 3 51 6 74 6 54 0 67 16 63
77 l-3 48 -82 3 -83 3 0 89 c0 78 -2 91 -19 100 -29 15 -72 12 -103 -8z"/>
<path d="M4208 657 c-137 -39 -200 -150 -149 -263 27 -60 104 -105 228 -134
63 -14 90 -39 74 -69 -23 -42 -114 -40 -201 4 -28 14 -54 24 -58 21 -4 -2 -22
-24 -39 -49 l-32 -44 27 -26 c73 -70 222 -96 324 -58 100 38 158 128 138 214
-15 68 -66 106 -204 153 -91 31 -118 50 -114 77 7 49 97 58 176 18 l38 -19 42
53 41 54 -27 19 c-72 50 -185 71 -264 49z"/>
<path d="M1390 651 c-50 -16 -116 -54 -153 -90 -126 -119 -122 -306 8 -436 95
-95 210 -122 317 -73 200 92 266 310 143 471 -76 99 -218 157 -315 128z m138
-162 c57 -28 82 -69 82 -137 0 -146 -132 -213 -248 -126 -48 37 -65 77 -60
145 8 117 114 172 226 118z"/>
<path d="M1844 652 c-18 -2 -40 -12 -50 -23 -20 -22 -23 -7 49 -209 63 -174
132 -338 153 -361 25 -28 78 -25 102 5 10 13 40 88 66 165 27 78 52 143 56
146 8 5 58 -130 85 -232 21 -74 45 -103 86 -103 59 0 70 22 193 360 72 196 72
195 42 225 -17 17 -36 25 -60 25 -43 0 -46 -5 -110 -196 -47 -140 -61 -173
-69 -164 -2 3 -23 70 -47 150 -57 195 -64 210 -104 210 -17 0 -37 -4 -45 -9
-10 -7 -94 -224 -128 -334 -10 -32 -26 -12 -49 64 -24 81 -85 247 -96 265 -10
15 -35 20 -74 16z"/>
<path d="M2955 642 c-22 -10 -54 -31 -72 -46 l-32 -27 -11 41 c-9 35 -14 40
-40 40 -16 0 -42 -11 -59 -26 l-31 -26 0 -262 c0 -261 0 -263 23 -284 29 -27
67 -28 98 -3 22 18 24 27 31 202 l7 184 34 31 c65 61 166 52 204 -18 15 -27
18 -62 21 -208 3 -166 4 -176 25 -192 30 -24 73 -22 98 3 20 20 20 29 17 227
-3 224 -7 241 -67 305 -61 67 -173 93 -246 59z"/>
<path d="M3531 629 c-111 -56 -173 -157 -174 -284 -1 -127 74 -245 188 -297
39 -18 68 -23 130 -23 71 0 87 4 140 32 33 18 71 42 85 54 l24 21 -49 43 -50
43 -51 -29 c-61 -35 -118 -38 -174 -9 -37 19 -80 67 -80 89 0 8 65 11 214 11
251 0 242 -4 233 96 -8 79 -38 137 -108 205 -88 86 -215 104 -328 48z m206
-126 c37 -17 73 -65 73 -97 0 -17 -7 -18 -147 -11 -82 4 -149 8 -151 10 -6 6
26 60 45 77 44 40 122 49 180 21z"/>
</g>
</svg>
