<?xml version="1.0" standalone="no"?>
<!DOCTYPE svg PUBLIC "-//W3C//DTD SVG 20010904//EN"
 "http://www.w3.org/TR/2001/REC-SVG-20010904/DTD/svg10.dtd">
<svg version="1.0" xmlns="http://www.w3.org/2000/svg"
 width="542.000000pt" height="380.000000pt" viewBox="0 0 542.000000 380.000000"
 preserveAspectRatio="xMidYMid meet">

<g transform="translate(0.000000,380.000000) scale(0.100000,-0.100000)"
fill="#000000" stroke="none">
<path d="M1750 3693 c-14 -3 -88 -22 -165 -43 -77 -21 -171 -44 -210 -50 -191
-32 -305 -76 -421 -164 -105 -79 -162 -151 -178 -226 -4 -19 -30 -40 -101 -83
-165 -100 -286 -232 -383 -417 -62 -116 -77 -163 -92 -269 -8 -61 -8 -97 0
-135 11 -50 10 -53 -31 -131 -144 -274 -163 -462 -79 -764 32 -113 100 -198
165 -205 35 -4 39 -11 53 -83 16 -81 50 -157 124 -275 118 -190 289 -356 443
-433 101 -50 155 -66 155 -44 0 32 -103 163 -215 275 -247 245 -321 388 -332
639 -9 210 17 335 117 567 47 108 92 176 189 285 183 208 401 320 676 347 138
14 183 29 211 71 13 20 14 28 2 52 -19 41 -53 53 -148 53 -115 0 -323 -47
-441 -99 -401 -177 -700 -599 -768 -1086 -19 -131 -22 -145 -30 -145 -5 0 -12
17 -15 38 -4 20 -19 82 -34 137 -22 85 -26 121 -27 240 0 131 2 144 28 208
100 238 312 497 528 643 85 57 236 126 324 148 153 39 349 43 506 11 80 -16
128 -39 231 -111 84 -58 140 -71 172 -38 64 63 -103 226 -304 296 -145 50
-312 61 -502 33 -126 -19 -187 -36 -308 -88 -167 -71 -307 -173 -470 -343 -57
-60 -101 -104 -99 -99 3 6 13 28 23 50 101 228 170 333 292 444 231 212 635
279 994 165 219 -69 420 -217 560 -414 36 -50 91 -126 122 -169 32 -43 77
-118 102 -168 50 -101 66 -118 99 -109 34 8 52 50 51 116 -1 104 -71 228 -233
414 -271 310 -285 324 -456 416 -183 99 -328 133 -562 132 -85 -1 -194 -8
-249 -17 -53 -8 -98 -14 -100 -12 -15 15 126 112 198 136 83 28 217 44 298 37
94 -8 158 -27 315 -93 325 -137 645 -404 762 -638 22 -43 68 -181 77 -230 3
-16 2 -106 -2 -200 -8 -167 -9 -171 -46 -253 -38 -84 -41 -125 -14 -159 23
-28 67 -15 118 36 42 42 52 61 79 144 123 383 8 764 -325 1076 -88 83 -402
305 -499 353 -56 29 -165 58 -213 58 -56 0 -34 17 29 24 100 10 185 7 267 -10
91 -19 247 -78 338 -129 160 -90 327 -245 427 -398 72 -109 86 -138 142 -302
49 -139 49 -141 53 -290 6 -214 -8 -336 -47 -413 -36 -70 -131 -177 -212 -237
-98 -72 -309 -268 -315 -292 -14 -53 26 -70 81 -33 16 11 71 29 122 40 114 26
154 52 271 174 148 155 272 352 322 511 27 86 30 228 6 290 -8 22 -22 80 -31
129 -18 100 -42 156 -141 334 -83 147 -178 284 -258 369 -32 35 -55 63 -51 63
4 0 46 -25 93 -56 99 -65 262 -223 315 -304 19 -31 66 -89 104 -130 118 -128
145 -175 189 -339 23 -83 26 -109 21 -196 -11 -210 -103 -429 -251 -592 -51
-57 -192 -172 -271 -222 -129 -81 -339 -129 -615 -140 -127 -5 -172 -11 -197
-24 -31 -16 -34 -16 -85 4 -63 25 -134 21 -155 -7 -76 -104 146 -282 482 -385
108 -34 113 -34 295 -33 l185 0 115 38 c199 66 339 146 497 283 40 35 74 63
77 63 3 0 -3 -24 -13 -52 -82 -234 -225 -391 -430 -474 -125 -51 -216 -67
-366 -68 -207 0 -393 41 -609 134 -72 30 -201 112 -275 172 -85 70 -219 230
-264 316 -43 82 -92 211 -102 270 -9 57 -37 82 -91 82 -58 0 -74 -19 -74 -84
0 -101 54 -251 136 -379 186 -288 438 -482 777 -597 173 -58 309 -81 520 -87
170 -5 177 -6 162 -23 -29 -32 -177 -100 -250 -115 -142 -30 -322 -13 -500 46
-246 82 -521 238 -653 371 -203 202 -296 476 -263 765 17 142 45 235 98 326
43 75 45 78 29 102 -18 28 -54 40 -90 31 -30 -7 -95 -95 -137 -182 -53 -112
-73 -220 -73 -389 0 -132 3 -161 27 -245 73 -261 158 -403 334 -564 161 -145
307 -233 545 -327 76 -30 138 -57 138 -60 0 -11 -122 -29 -196 -29 -211 1
-416 90 -628 275 -200 176 -333 375 -393 592 -24 85 -28 115 -27 228 2 213 56
404 161 562 56 85 177 208 266 270 42 30 84 64 92 76 36 52 -3 105 -67 92 -72
-15 -186 -85 -250 -154 -197 -210 -296 -397 -344 -651 -23 -118 -15 -362 15
-475 23 -86 101 -257 153 -333 99 -146 291 -352 410 -441 69 -51 271 -145 376
-173 64 -17 108 -21 257 -22 197 -1 259 10 420 74 44 18 121 37 183 46 143 21
239 53 347 115 108 62 119 70 217 165 49 47 79 84 83 103 7 32 35 60 134 130
124 89 240 232 313 388 91 193 103 293 36 293 -27 0 -22 17 27 85 61 85 134
149 219 189 123 59 161 68 309 75 123 5 140 8 153 26 23 31 14 84 -19 109 -24
18 -40 20 -150 19 -184 -3 -316 -43 -476 -147 -59 -38 -85 -64 -158 -163 -48
-65 -114 -144 -147 -176 -319 -308 -711 -416 -1069 -297 -96 33 -227 97 -227
111 0 12 3 12 74 -8 85 -24 332 -24 435 1 88 20 242 76 326 119 240 120 464
347 574 582 105 222 114 567 22 769 -92 200 -392 546 -596 686 -26 18 -99 57
-164 88 -112 54 -119 56 -206 58 -74 1 -101 6 -150 29 -99 45 -267 103 -348
119 -71 15 -265 20 -327 9z"/>
<path d="M3793 2715 c-68 -29 -74 -118 -11 -151 25 -13 48 -14 161 -4 188 15
187 15 187 92 0 71 -16 78 -175 78 -88 -1 -140 -5 -162 -15z"/>
<path d="M4534 2712 c-48 -38 -56 -88 -21 -124 l22 -24 402 5 401 6 26 24 c44
41 31 100 -25 120 -21 7 -159 11 -408 11 -341 0 -378 -2 -397 -18z"/>
<path d="M4190 2333 c-82 -6 -109 -14 -140 -39 -38 -33 -40 -71 -4 -105 24
-22 35 -24 146 -27 135 -4 171 5 193 49 23 44 19 84 -11 108 -27 21 -57 24
-184 14z"/>
<path d="M1879 2320 c-106 -18 -206 -95 -256 -198 -23 -47 -27 -69 -28 -142 0
-78 3 -92 34 -155 67 -137 165 -200 306 -199 130 0 254 83 312 208 24 52 28
74 28 146 0 71 -4 94 -27 142 -68 146 -214 224 -369 198z"/>
<path d="M4683 2315 c-60 -26 -75 -78 -37 -130 14 -19 26 -19 287 -16 294 3
308 5 328 58 13 34 -10 69 -56 89 -48 20 -475 20 -522 -1z"/>
<path d="M4665 1903 c-62 -16 -85 -86 -40 -121 21 -17 48 -20 195 -27 188 -8
200 -5 200 47 0 78 -45 100 -210 104 -69 2 -134 0 -145 -3z"/>
</g>
</svg>
